<svg width="18" height="12" viewBox="0 0 18 12" fill="none" xmlns="http://www.w3.org/2000/svg">
<path d="M17.488 2.3382H11.5203C11.2375 2.3382 11.0081 2.56742 11.0081 2.85044C11.0081 3.13345 11.2375 3.36268 11.5203 3.36268H17.488C17.7708 3.36268 18.0002 3.13345 18.0002 2.85044C18.0002 2.56742 17.7708 2.3382 17.488 2.3382Z" fill="white"/>
<path d="M17.488 8.89478H11.5203C11.2375 8.89478 11.0081 9.124 11.0081 9.40702C11.0081 9.69003 11.2375 9.91926 11.5203 9.91926H17.488C17.7708 9.91926 18.0002 9.69003 18.0002 9.40702C18.0002 9.124 17.7708 8.89478 17.488 8.89478Z" fill="white"/>
<path d="M17.488 5.61743H11.5203C11.2375 5.61743 11.0081 5.84666 11.0081 6.12967C11.0081 6.41269 11.2375 6.64192 11.5203 6.64192H17.488C17.7708 6.64192 18.0002 6.41269 18.0002 6.12967C18.0002 5.84666 17.7708 5.61743 17.488 5.61743Z" fill="white"/>
<path d="M4.0672 6.90135C2.98365 6.89335 1.94364 7.32828 1.1884 8.10513C0.420039 8.88886 0 9.95432 0 11.112C0.000800369 11.3945 0.229709 11.6234 0.512242 11.6242H7.62217C7.9047 11.6234 8.13361 11.3945 8.13441 11.112C8.13441 9.95432 7.71437 8.88886 6.94601 8.10513C6.19077 7.32828 5.15092 6.89335 4.0672 6.90135ZM1.06034 10.5998C1.14806 9.92999 1.44997 9.30666 1.92091 8.82227C2.48774 8.24871 3.26074 7.92584 4.0672 7.92584C4.87367 7.92584 5.64667 8.24871 6.2135 8.82227C6.68348 9.30714 6.98539 9.93031 7.07407 10.5998H1.06034Z" fill="white"/>
<path d="M4.06672 5.92549C5.52933 5.92549 6.71501 4.73965 6.71501 3.2772C6.71501 1.81459 5.52933 0.628906 4.06672 0.628906C2.60411 0.628906 1.41843 1.81459 1.41843 3.2772C1.42035 4.73901 2.60491 5.92357 4.06672 5.92549ZM4.06672 1.65851C4.96346 1.65851 5.69053 2.38542 5.69053 3.28232C5.69053 4.17906 4.96346 4.90613 4.06672 4.90613C3.16981 4.90613 2.44291 4.17906 2.44291 3.28232C2.44323 2.38558 3.16997 1.65883 4.06672 1.65851Z" fill="white"/>
</svg>
