<svg width="145" height="55" viewBox="0 0 145 55" fill="none" xmlns="http://www.w3.org/2000/svg">
<path d="M16.7678 32.448C13.5956 32.448 10.7254 31.7532 8.15733 30.3634C5.61949 28.9434 3.62548 27.0098 2.17529 24.5626C0.725096 22.0852 0 19.3057 0 16.224C0 13.1424 0.725096 10.3779 2.17529 7.93074C3.62548 5.45333 5.6346 3.51974 8.20265 2.12997C10.7707 0.70999 13.6409 0 16.8132 0C19.2906 0 21.5565 0.422973 23.6109 1.26892C25.6654 2.08465 27.4177 3.30825 28.8679 4.93971L25.9222 7.79478C23.5354 5.28716 20.5595 4.03335 16.9944 4.03335C14.6379 4.03335 12.5079 4.56206 10.6045 5.61949C8.70115 6.67692 7.20564 8.14222 6.118 10.0154C5.06057 11.8583 4.53185 13.9279 4.53185 16.224C4.53185 18.5202 5.06057 20.6048 6.118 22.478C7.20564 24.3209 8.70115 25.7711 10.6045 26.8286C12.5079 27.886 14.6379 28.4147 16.9944 28.4147C20.5293 28.4147 23.5052 27.1458 25.9222 24.6079L28.8679 27.463C27.4177 29.0945 25.6503 30.3332 23.5656 31.1791C21.5112 32.0251 19.2453 32.448 16.7678 32.448Z" fill="white"/>
<path d="M38.8677 12.1C39.623 10.7103 40.7409 9.65284 42.2213 8.92774C43.7017 8.20265 45.4993 7.8401 47.6142 7.8401V12.0547C47.3725 12.0245 47.0401 12.0094 46.6172 12.0094C44.2606 12.0094 42.4025 12.7194 41.043 14.1394C39.7136 15.5291 39.049 17.5232 39.049 20.1214V32.0855H34.6984V8.06669H38.8677V12.1Z" fill="white"/>
<path d="M63.0423 32.3574C60.6555 32.3574 58.5104 31.8287 56.6071 30.7713C54.7037 29.7138 53.2082 28.2636 52.1205 26.4207C51.0631 24.5475 50.5344 22.4327 50.5344 20.0761C50.5344 17.7195 51.0631 15.6198 52.1205 13.7768C53.2082 11.9037 54.7037 10.4535 56.6071 9.42625C58.5104 8.36882 60.6555 7.8401 63.0423 7.8401C65.4291 7.8401 67.559 8.36882 69.4322 9.42625C71.3356 10.4535 72.816 11.9037 73.8734 13.7768C74.961 15.6198 75.5049 17.7195 75.5049 20.0761C75.5049 22.4327 74.961 24.5475 73.8734 26.4207C72.816 28.2636 71.3356 29.7138 69.4322 30.7713C67.559 31.8287 65.4291 32.3574 63.0423 32.3574ZM63.0423 28.5507C64.5831 28.5507 65.9578 28.2032 67.1663 27.5083C68.405 26.7832 69.3718 25.7862 70.0667 24.5173C70.7615 23.2182 71.109 21.7378 71.109 20.0761C71.109 18.4144 70.7615 16.9491 70.0667 15.6802C69.3718 14.3811 68.405 13.3841 67.1663 12.6892C65.9578 11.9943 64.5831 11.6469 63.0423 11.6469C61.5015 11.6469 60.1117 11.9943 58.873 12.6892C57.6645 13.3841 56.6977 14.3811 55.9726 15.6802C55.2777 16.9491 54.9303 18.4144 54.9303 20.0761C54.9303 21.7378 55.2777 23.2182 55.9726 24.5173C56.6977 25.7862 57.6645 26.7832 58.873 27.5083C60.1117 28.2032 61.5015 28.5507 63.0423 28.5507Z" fill="white"/>
<path d="M117.203 8.06669L108.23 32.0855H104.061L97.1271 13.8675L90.1027 32.0855H85.9334L77.0057 8.06669H81.1297L88.1087 27.1911L95.3597 8.06669H99.0305L106.145 27.2817L113.306 8.06669H117.203Z" fill="white"/>
<path d="M134.443 7.8401C137.494 7.8401 139.911 8.73136 141.694 10.5139C143.507 12.2662 144.413 14.8494 144.413 18.2634V32.0855H140.062V18.7619C140.062 16.4355 139.504 14.6832 138.386 13.5049C137.268 12.3266 135.667 11.7375 133.582 11.7375C131.225 11.7375 129.367 12.4324 128.008 13.8221C126.648 15.1817 125.968 17.1455 125.968 19.7135V32.0855H121.618V8.06669H125.787V11.6922C126.663 10.4535 127.842 9.50178 129.322 8.83711C130.833 8.17244 132.54 7.8401 134.443 7.8401Z" fill="white"/>
<path d="M42.4868 45.319C43.3028 45.319 44.0416 45.5065 44.7032 45.8814C45.3648 46.2453 45.883 46.7635 46.258 47.4362C46.6329 48.1088 46.8203 48.8752 46.8203 49.7353C46.8203 50.5953 46.6329 51.3617 46.258 52.0343C45.883 52.707 45.3648 53.2308 44.7032 53.6057C44.0416 53.9806 43.3028 54.168 42.4868 54.168C41.759 54.168 41.1029 54.0137 40.5185 53.7049C39.9451 53.3962 39.482 52.9496 39.1291 52.3652V54.0853H38.0044V41.8125H39.1787V47.0392C39.5426 46.4768 40.0058 46.0523 40.5681 45.7656C41.1415 45.4679 41.7811 45.319 42.4868 45.319ZM42.4041 53.126C43.0106 53.126 43.5619 52.9882 44.0581 52.7125C44.5543 52.4258 44.9403 52.0233 45.2159 51.5051C45.5026 50.9868 45.646 50.3969 45.646 49.7353C45.646 49.0737 45.5026 48.4837 45.2159 47.9655C44.9403 47.4472 44.5543 47.0502 44.0581 46.7746C43.5619 46.4879 43.0106 46.3445 42.4041 46.3445C41.7866 46.3445 41.2297 46.4879 40.7335 46.7746C40.2483 47.0502 39.8624 47.4472 39.5757 47.9655C39.3 48.4837 39.1622 49.0737 39.1622 49.7353C39.1622 50.3969 39.3 50.9868 39.5757 51.5051C39.8624 52.0233 40.2483 52.4258 40.7335 52.7125C41.2297 52.9882 41.7866 53.126 42.4041 53.126Z" fill="white"/>
<path d="M57.0543 45.3852V54.0853H55.9296V52.4975C55.6208 53.0268 55.1963 53.4403 54.656 53.738C54.1157 54.0247 53.4982 54.168 52.8035 54.168C51.6677 54.168 50.769 53.8538 50.1074 53.2252C49.4568 52.5857 49.1316 51.6539 49.1316 50.4299V45.3852H50.3059V50.3142C50.3059 51.2294 50.532 51.9241 50.9841 52.3982C51.4362 52.8724 52.0812 53.1095 52.9193 53.1095C53.8345 53.1095 54.5567 52.8338 55.086 52.2825C55.6153 51.7201 55.88 50.9427 55.88 49.9503V45.3852H57.0543Z" fill="white"/>
<path d="M62.6755 54.168C61.9698 54.168 61.2917 54.0688 60.6411 53.8703C60.0015 53.6608 59.4998 53.4017 59.1359 53.0929L59.6652 52.1667C60.0291 52.4534 60.4867 52.6904 61.0381 52.8779C61.5894 53.0543 62.1628 53.1425 62.7582 53.1425C63.5522 53.1425 64.1366 53.0212 64.5115 52.7787C64.8974 52.525 65.0904 52.1722 65.0904 51.7201C65.0904 51.4003 64.9856 51.1522 64.7761 50.9758C64.5666 50.7883 64.302 50.6505 63.9822 50.5623C63.6624 50.463 63.2379 50.3693 62.7086 50.2811C62.0029 50.1488 61.435 50.0164 61.005 49.8841C60.5749 49.7408 60.2055 49.5037 59.8968 49.1729C59.5991 48.8421 59.4502 48.3845 59.4502 47.8001C59.4502 47.0723 59.7534 46.4768 60.3599 46.0137C60.9664 45.5506 61.8099 45.319 62.8906 45.319C63.4529 45.319 64.0153 45.3962 64.5777 45.5506C65.14 45.6939 65.6031 45.8869 65.967 46.1295L65.4543 47.0723C64.7375 46.5761 63.883 46.328 62.8906 46.328C62.1407 46.328 61.5729 46.4603 61.1869 46.7249C60.812 46.9896 60.6245 47.3369 60.6245 47.767C60.6245 48.0978 60.7293 48.3624 60.9388 48.5609C61.1593 48.7594 61.4295 48.9082 61.7493 49.0075C62.0691 49.0957 62.5101 49.1894 63.0725 49.2887C63.7672 49.421 64.324 49.5533 64.7431 49.6856C65.1621 49.818 65.5204 50.044 65.8182 50.3638C66.1159 50.6836 66.2648 51.1246 66.2648 51.687C66.2648 52.4479 65.945 53.0543 65.3054 53.5064C64.6769 53.9475 63.8003 54.168 62.6755 54.168Z" fill="white"/>
<path d="M68.4358 45.3852H69.6101V54.0853H68.4358V45.3852ZM69.0312 43.4831C68.7886 43.4831 68.5846 43.4004 68.4192 43.235C68.2538 43.0696 68.1711 42.8711 68.1711 42.6395C68.1711 42.419 68.2538 42.226 68.4192 42.0606C68.5846 41.8952 68.7886 41.8125 69.0312 41.8125C69.2738 41.8125 69.4778 41.8952 69.6432 42.0606C69.8086 42.215 69.8913 42.4024 69.8913 42.623C69.8913 42.8656 69.8086 43.0696 69.6432 43.235C69.4778 43.4004 69.2738 43.4831 69.0312 43.4831Z" fill="white"/>
<path d="M77.3105 45.319C78.4022 45.319 79.2678 45.6388 79.9073 46.2784C80.5579 46.9069 80.8832 47.8276 80.8832 49.0406V54.0853H79.7088V49.1564C79.7088 48.2522 79.4828 47.563 79.0307 47.0888C78.5786 46.6147 77.9335 46.3776 77.0955 46.3776C76.1582 46.3776 75.4139 46.6588 74.8626 47.2211C74.3222 47.7725 74.0521 48.5389 74.0521 49.5202V54.0853H72.8777V45.3852H74.0025V46.9896C74.3222 46.4603 74.7633 46.0523 75.3257 45.7656C75.8991 45.4679 76.5607 45.319 77.3105 45.319Z" fill="white"/>
<path d="M91.6792 50.0991H84.4015C84.4676 51.0033 84.815 51.7366 85.4435 52.299C86.072 52.8503 86.866 53.126 87.8253 53.126C88.3656 53.126 88.8618 53.0323 89.3139 52.8448C89.766 52.6463 90.1575 52.3596 90.4883 51.9847L91.1499 52.7456C90.7639 53.2087 90.2788 53.5616 89.6943 53.8041C89.1209 54.0467 88.4869 54.168 87.7922 54.168C86.899 54.168 86.1051 53.9806 85.4104 53.6057C84.7268 53.2197 84.192 52.6904 83.806 52.0178C83.4201 51.3452 83.2271 50.5843 83.2271 49.7353C83.2271 48.8862 83.4091 48.1253 83.773 47.4527C84.1479 46.7801 84.6551 46.2563 85.2947 45.8814C85.9452 45.5065 86.673 45.319 87.478 45.319C88.2829 45.319 89.0052 45.5065 89.6447 45.8814C90.2843 46.2563 90.786 46.7801 91.1499 47.4527C91.5138 48.1143 91.6957 48.8752 91.6957 49.7353L91.6792 50.0991ZM87.478 46.328C86.6399 46.328 85.9342 46.5981 85.3608 47.1384C84.7984 47.6677 84.4787 48.3624 84.4015 49.2225H90.571C90.4938 48.3624 90.1685 47.6677 89.5951 47.1384C89.0327 46.5981 88.327 46.328 87.478 46.328Z" fill="white"/>
<path d="M96.4182 54.168C95.7125 54.168 95.0343 54.0688 94.3837 53.8703C93.7442 53.6608 93.2425 53.4017 92.8786 53.0929L93.4079 52.1667C93.7718 52.4534 94.2294 52.6904 94.7807 52.8779C95.3321 53.0543 95.9054 53.1425 96.5009 53.1425C97.2948 53.1425 97.8792 53.0212 98.2542 52.7787C98.6401 52.525 98.8331 52.1722 98.8331 51.7201C98.8331 51.4003 98.7283 51.1522 98.5188 50.9758C98.3093 50.7883 98.0446 50.6505 97.7249 50.5623C97.4051 50.463 96.9806 50.3693 96.4513 50.2811C95.7456 50.1488 95.1777 50.0164 94.7476 49.8841C94.3176 49.7408 93.9482 49.5037 93.6394 49.1729C93.3417 48.8421 93.1929 48.3845 93.1929 47.8001C93.1929 47.0723 93.4961 46.4768 94.1026 46.0137C94.709 45.5506 95.5526 45.319 96.6332 45.319C97.1956 45.319 97.7579 45.3962 98.3203 45.5506C98.8827 45.6939 99.3458 45.8869 99.7097 46.1295L99.1969 47.0723C98.4802 46.5761 97.6256 46.328 96.6332 46.328C95.8834 46.328 95.3155 46.4603 94.9296 46.7249C94.5547 46.9896 94.3672 47.3369 94.3672 47.767C94.3672 48.0978 94.472 48.3624 94.6815 48.5609C94.902 48.7594 95.1722 48.9082 95.4919 49.0075C95.8117 49.0957 96.2528 49.1894 96.8152 49.2887C97.5098 49.421 98.0667 49.5533 98.4857 49.6856C98.9047 49.818 99.2631 50.044 99.5608 50.3638C99.8586 50.6836 100.007 51.1246 100.007 51.687C100.007 52.4479 99.6876 53.0543 99.0481 53.5064C98.4196 53.9475 97.5429 54.168 96.4182 54.168Z" fill="white"/>
<path d="M104.511 54.168C103.805 54.168 103.127 54.0688 102.476 53.8703C101.837 53.6608 101.335 53.4017 100.971 53.0929L101.5 52.1667C101.864 52.4534 102.322 52.6904 102.873 52.8779C103.424 53.0543 103.998 53.1425 104.593 53.1425C105.387 53.1425 105.972 53.0212 106.347 52.7787C106.733 52.525 106.925 52.1722 106.925 51.7201C106.925 51.4003 106.821 51.1522 106.611 50.9758C106.402 50.7883 106.137 50.6505 105.817 50.5623C105.498 50.463 105.073 50.3693 104.544 50.2811C103.838 50.1488 103.27 50.0164 102.84 49.8841C102.41 49.7408 102.041 49.5037 101.732 49.1729C101.434 48.8421 101.285 48.3845 101.285 47.8001C101.285 47.0723 101.589 46.4768 102.195 46.0137C102.801 45.5506 103.645 45.319 104.726 45.319C105.288 45.319 105.85 45.3962 106.413 45.5506C106.975 45.6939 107.438 45.8869 107.802 46.1295L107.289 47.0723C106.573 46.5761 105.718 46.328 104.726 46.328C103.976 46.328 103.408 46.4603 103.022 46.7249C102.647 46.9896 102.46 47.3369 102.46 47.767C102.46 48.0978 102.564 48.3624 102.774 48.5609C102.994 48.7594 103.265 48.9082 103.584 49.0075C103.904 49.0957 104.345 49.1894 104.908 49.2887C105.602 49.421 106.159 49.5533 106.578 49.6856C106.997 49.818 107.356 50.044 107.653 50.3638C107.951 50.6836 108.1 51.1246 108.1 51.687C108.1 52.4479 107.78 53.0543 107.141 53.5064C106.512 53.9475 105.635 54.168 104.511 54.168Z" fill="white"/>
</svg>
