<svg width="13" height="19" viewBox="0 0 13 19" fill="none" xmlns="http://www.w3.org/2000/svg">
<path d="M6.5 0C2.9159 0 0 2.99651 0 6.67969C0 7.92411 0.335436 9.13855 0.97027 10.1922L6.13001 18.7369C6.22884 18.9005 6.40297 19 6.59024 19H6.59454C6.78344 18.9985 6.95792 18.8959 7.05496 18.7294L12.0832 10.1019C12.683 9.07057 13 7.88719 13 6.67969C13 2.99651 10.0841 0 6.5 0ZM11.1535 9.53036L6.58204 17.3741L1.89103 9.60561C1.36262 8.72865 1.07611 7.7169 1.07611 6.67969C1.07611 3.61037 3.51325 1.10586 6.5 1.10586C9.48675 1.10586 11.9203 3.61037 11.9203 6.67969C11.9203 7.68613 11.6527 8.67202 11.1535 9.53036Z" fill="white"/>
<path d="M6.49986 3.34018C4.70781 3.34018 3.24986 4.83843 3.24986 6.68002C3.24986 8.50984 4.68409 10.0199 6.49986 10.0199C8.33803 10.0199 9.74986 8.48973 9.74986 6.68002C9.74986 4.83843 8.29191 3.34018 6.49986 3.34018ZM6.49986 8.914C5.29892 8.914 4.32598 7.91082 4.32598 6.68002C4.32598 5.45229 5.30516 4.44603 6.49986 4.44603C7.69456 4.44603 8.67014 5.45229 8.67014 6.68002C8.67014 7.89286 7.71984 8.914 6.49986 8.914Z" fill="white"/>
</svg>
