<svg width="31" height="21" viewBox="0 0 31 21" fill="none" xmlns="http://www.w3.org/2000/svg">
<path d="M0.0435534 18.413L13.1948 10.6196L0.000854492 2.82629V17.9419C0.000854492 18.1132 0.0435534 18.2845 0.0435534 18.413Z" fill="white"/>
<path d="M13.7931 11.005L0.300293 18.9696C0.641884 19.6119 1.32507 20.0401 2.09365 20.0401H27.9692C28.8231 20.0401 29.549 19.5263 29.8479 18.7983L16.6113 10.9622L15.2022 11.7757L13.7931 11.005Z" fill="white"/>
<path d="M30.0633 17.9418V3.04028L17.2109 10.6623L30.0206 18.2416C30.0206 18.1559 30.0633 18.0703 30.0633 17.9418Z" fill="white"/>
<path d="M2.09224 0C0.939375 0 0 0.942051 0 2.09821V2.14103L15.2008 11.1333L30.06 2.35513V2.09821C30.06 0.942051 29.1206 0 27.9678 0H2.09224Z" fill="white"/>
</svg>
