<svg width="14" height="19" viewBox="0 0 14 19" fill="none" xmlns="http://www.w3.org/2000/svg">
<rect x="0.262666" y="12.1847" width="3.40379" height="5.68421" stroke="white" stroke-width="0.525332"/>
<rect x="5.06526" y="10.5505" width="3.40379" height="7.3183" stroke="white" stroke-width="0.525332"/>
<rect x="9.8676" y="8.26267" width="3.40379" height="9.60602" stroke="white" stroke-width="0.525332"/>
<path d="M12.1768 0.823223C12.0791 0.725592 11.9209 0.725592 11.8232 0.823223L10.2322 2.41421C10.1346 2.51184 10.1346 2.67014 10.2322 2.76777C10.3299 2.8654 10.4882 2.8654 10.5858 2.76777L12 1.35355L13.4142 2.76777C13.5118 2.8654 13.6701 2.8654 13.7678 2.76777C13.8654 2.67014 13.8654 2.51184 13.7678 2.41421L12.1768 0.823223ZM12.25 7L12.25 1L11.75 1L11.75 7L12.25 7Z" fill="white"/>
</svg>
