<svg width="15" height="20" viewBox="0 0 15 20" fill="none" xmlns="http://www.w3.org/2000/svg">
<path d="M7.7673 11.2856V18.9996" stroke="white" stroke-width="0.525332" stroke-linecap="round" stroke-linejoin="round"/>
<path d="M7.76776 11.2865C8.65532 11.2865 9.37484 10.567 9.37484 9.67943C9.37484 8.79187 8.65532 8.07236 7.76776 8.07236C6.8802 8.07236 6.16068 8.79187 6.16068 9.67943C6.16068 10.567 6.8802 11.2865 7.76776 11.2865Z" stroke="white" stroke-width="0.525332" stroke-linecap="round" stroke-linejoin="round"/>
<path d="M3.26786 4.85698V1.64283C3.26786 1.47234 3.33559 1.30883 3.45614 1.18828C3.5767 1.06773 3.7402 1 3.91069 1H11.6247C11.7951 1 11.9587 1.06773 12.0792 1.18828C12.1998 1.30883 12.2675 1.47234 12.2675 1.64283V4.85698" stroke="white" stroke-width="0.525332" stroke-linecap="round" stroke-linejoin="round"/>
<path d="M3.26712 4.85709L1.0665 9.31116C1.01429 9.41685 0.992137 9.53487 1.00248 9.6523C1.01282 9.76973 1.05526 9.88206 1.12514 9.977L7.76694 18.9994L14.4087 9.97696C14.4786 9.88203 14.521 9.7697 14.5314 9.65227C14.5417 9.53483 14.5196 9.41682 14.4673 9.31113L12.2668 4.85709H3.26712Z" stroke="white" stroke-width="0.525332" stroke-linecap="round" stroke-linejoin="round"/>
</svg>
