<svg width="18" height="18" viewBox="0 0 18 18" fill="none" xmlns="http://www.w3.org/2000/svg">
<rect x="0.283065" y="0.283065" width="17.4339" height="17.4339" rx="1.009" stroke="white" stroke-width="0.566129"/>
<rect x="4.34777" y="2.60521" width="9.30484" height="9.30484" rx="4.65242" stroke="white" stroke-width="0.566129"/>
<line x1="5.80633" y1="13.4848" x2="12.1934" y2="13.4848" stroke="white" stroke-width="0.9"/>
<line x1="5.80633" y1="15.2279" x2="12.1934" y2="15.2279" stroke="white" stroke-width="0.9"/>
<circle cx="8.99985" cy="5.29455" r="1.49208" stroke="white" stroke-width="0.499706"/>
<path fill-rule="evenodd" clip-rule="evenodd" d="M8.00666 6.72302C7.05644 7.11406 6.38746 8.04907 6.38746 9.14034V9.72934V10.229H6.88717H11.1136H11.6133V9.72934V9.14034C11.6133 8.04911 10.9443 7.11412 9.99416 6.72306C9.74217 6.89839 9.44167 7.00886 9.11685 7.0303C10.2298 7.09076 11.1136 8.01233 11.1136 9.14034V9.72934H6.88717V9.14034C6.88717 8.01231 7.77102 7.09071 8.88397 7.03029C8.55914 7.00885 8.25865 6.89836 8.00666 6.72302Z" fill="white"/>
</svg>
