<svg width="20" height="18" viewBox="0 0 20 18" fill="none" xmlns="http://www.w3.org/2000/svg">
<path d="M17.6137 16.8586H2.51034C2.10977 16.8586 1.72561 16.6994 1.44237 16.4162C1.15912 16.133 1 15.7488 1 15.3482V4.77585C1 4.37528 1.15912 3.99112 1.44237 3.70788C1.72561 3.42464 2.10977 3.26551 2.51034 3.26551H5.53047L7.04081 1H13.0822L14.5925 3.26551H17.6137C18.0143 3.26551 18.3985 3.42464 18.6817 3.70788C18.965 3.99112 19.1241 4.37528 19.1241 4.77585V15.3482C19.1241 15.7488 18.965 16.133 18.6817 16.4162C18.3985 16.6994 18.0143 16.8586 17.6137 16.8586Z" stroke="white" stroke-width="0.794404" stroke-linecap="round" stroke-linejoin="round"/>
<path d="M10.0614 13.0814C11.9382 13.0814 13.4597 11.5599 13.4597 9.68312C13.4597 7.80631 11.9382 6.28485 10.0614 6.28485C8.18458 6.28485 6.66312 7.80631 6.66312 9.68312C6.66312 11.5599 8.18458 13.0814 10.0614 13.0814Z" stroke="white" stroke-width="0.794404" stroke-linecap="round" stroke-linejoin="round"/>
</svg>
