<svg width="19" height="14" viewBox="0 0 19 14" fill="none" xmlns="http://www.w3.org/2000/svg">
<path d="M7.60925 5.62653H14.2187" stroke="white" stroke-width="0.60221" stroke-linecap="round" stroke-linejoin="round"/>
<path d="M7.60925 8.27063H14.2187" stroke="white" stroke-width="0.60221" stroke-linecap="round" stroke-linejoin="round"/>
<path d="M2.32171 12.8969C2.67229 12.8969 3.00852 12.7577 3.25642 12.5098C3.50432 12.2619 3.64359 11.9256 3.64359 11.5751V1.66094C3.64359 1.48565 3.71322 1.31754 3.83717 1.19359C3.96112 1.06963 4.12924 1 4.30453 1H17.5233C17.6986 1 17.8668 1.06963 17.9907 1.19359C18.1147 1.31754 18.1843 1.48565 18.1843 1.66094V11.5751C18.1843 11.9256 18.045 12.2619 17.7971 12.5098C17.5492 12.7577 17.213 12.8969 16.8624 12.8969H2.32171Z" stroke="white" stroke-width="0.60221" stroke-linecap="round" stroke-linejoin="round"/>
<path d="M2.32188 12.8973C1.9713 12.8973 1.63507 12.758 1.38717 12.5101C1.13927 12.2622 1 11.926 1 11.5754V3.6441" stroke="white" stroke-width="0.60221" stroke-linecap="round" stroke-linejoin="round"/>
</svg>
