<svg width="18" height="17" viewBox="0 0 18 17" fill="none" xmlns="http://www.w3.org/2000/svg">
<path d="M6.80157 1.58521C6.80157 0.965638 6.51525 0.53755 6.19637 0.256259H13.0533C14.7399 0.256259 16.1071 1.62347 16.1071 3.31002V8.14439C16.1071 9.83093 14.7399 11.1981 13.0533 11.1981H9.85532C8.16878 11.1981 6.80157 9.83093 6.80157 8.14439V5.7272V2.8636V2.8636V2.8636V2.86359V2.86359V2.86358V2.86358V2.86349V2.86301V2.86006V2.84003V2.69421V1.58521Z" stroke="white" stroke-width="0.512519"/>
<rect x="0.256259" y="0.256259" width="17.4873" height="15.9021" rx="3.05376" stroke="white" stroke-width="0.512519"/>
<rect x="0.256259" y="0.256259" width="4.39651" height="15.9021" rx="2.19826" stroke="white" stroke-width="0.512519"/>
<rect x="16.1066" y="13.3477" width="1.17496" height="9.30554" rx="0.587481" transform="rotate(90 16.1066 13.3477)" stroke="white" stroke-width="0.512519"/>
<path d="M10.636 7.36303C10.636 8.26676 9.90341 8.99937 8.99968 8.99937C8.09595 8.99937 7.36333 8.26676 7.36333 7.36303C7.36333 6.4593 8.09595 5.72668 8.99968 5.72668C9.90341 5.72668 10.636 6.4593 10.636 7.36303ZM7.57834 7.36303C7.57834 8.14801 8.2147 8.78436 8.99968 8.78436C9.78466 8.78436 10.421 8.14801 10.421 7.36303C10.421 6.57805 9.78466 5.94169 8.99968 5.94169C8.2147 5.94169 7.57834 6.57805 7.57834 7.36303Z" stroke="white" stroke-width="0.5"/>
<path d="M15.5451 7.36303C15.5451 8.26676 14.8125 8.99937 13.9087 8.99937C13.005 8.99937 12.2724 8.26676 12.2724 7.36303C12.2724 6.4593 13.005 5.72668 13.9087 5.72668C14.8125 5.72668 15.5451 6.4593 15.5451 7.36303ZM12.4544 7.36303C12.4544 8.16622 13.1055 8.81733 13.9087 8.81733C14.7119 8.81733 15.363 8.16622 15.363 7.36303C15.363 6.55984 14.7119 5.90872 13.9087 5.90872C13.1055 5.90872 12.4544 6.55984 12.4544 7.36303Z" stroke="white" stroke-width="0.5"/>
</svg>
