<svg width="18" height="18" viewBox="0 0 18 18" fill="none" xmlns="http://www.w3.org/2000/svg">
<circle cx="8.90554" cy="1.8584" r="1.60855" stroke="white" stroke-width="0.499706"/>
<path fill-rule="evenodd" clip-rule="evenodd" d="M7.84469 3.38531C6.8312 3.80262 6.11773 4.80001 6.11773 5.96405V6.62584V7.12555H6.61744H11.1932H11.6929V6.62584V5.96405C11.6929 4.80012 10.9796 3.8028 9.96625 3.38543C9.74146 3.54195 9.48046 3.65008 9.19833 3.69473C10.3235 3.83857 11.1932 4.79974 11.1932 5.96405V6.62584H6.61744V5.96405C6.61744 4.79966 7.48726 3.83843 8.61258 3.6947C8.33046 3.65003 8.06946 3.54187 7.84469 3.38531Z" fill="white"/>
<circle cx="15.06" cy="11.8101" r="1.60855" stroke="white" stroke-width="0.499706"/>
<path fill-rule="evenodd" clip-rule="evenodd" d="M13.9984 13.3318C12.9858 13.7495 12.273 14.7465 12.273 15.9099V16.5717V17.0714H12.7727H17.3485H17.8482V16.5717V15.9099C17.8482 14.7466 17.1356 13.7497 16.1231 13.332C15.8996 13.488 15.6401 13.5961 15.3597 13.6414C16.4819 13.7879 17.3485 14.7477 17.3485 15.9099V16.5717H12.7727V15.9099C12.7727 14.7476 13.6394 13.7878 14.7618 13.6414C14.4814 13.596 14.2219 13.4879 13.9984 13.3318Z" fill="white"/>
<circle cx="8.90504" cy="9.87291" r="0.292181" stroke="white" stroke-width="0.499706"/>
<circle cx="2.78651" cy="11.8101" r="1.60855" stroke="white" stroke-width="0.499706"/>
<path fill-rule="evenodd" clip-rule="evenodd" d="M1.72538 13.3318C0.712729 13.7495 0 14.7465 0 15.9099V16.5717V17.0714H0.499706H5.0755H5.57521V16.5717V15.9099C5.57521 14.7466 4.86261 13.7497 3.8501 13.332C3.62656 13.488 3.36712 13.5961 3.08665 13.6414C4.20892 13.7879 5.0755 14.7477 5.0755 15.9099V16.5717H0.499706V15.9099C0.499706 14.7476 1.36642 13.7878 2.4888 13.6414C2.20834 13.596 1.94891 13.4879 1.72538 13.3318Z" fill="white"/>
<line x1="8.93636" y1="6.89148" x2="8.93637" y2="9.58736" stroke="white" stroke-width="0.499706"/>
<line x1="8.48517" y1="10.115" x2="4.70526" y2="11.729" stroke="white" stroke-width="0.499706"/>
<line x1="9.3651" y1="9.94887" x2="13.3203" y2="11.2633" stroke="white" stroke-width="0.499706"/>
</svg>
