<svg width="13" height="24" viewBox="0 0 13 24" fill="none" xmlns="http://www.w3.org/2000/svg">
<path d="M11.7317 24H1.26862C0.932259 24 0.609673 23.8555 0.371829 23.5983C0.133984 23.3411 0.000364505 22.9923 0.000364505 22.6286V1.37143C0.000364505 1.0077 0.133984 0.658875 0.371829 0.401682C0.609673 0.144489 0.932259 0 1.26862 0H11.7317C12.0681 0 12.3907 0.144489 12.6285 0.401682C12.8664 0.658875 13 1.0077 13 1.37143V22.6286C13 22.9923 12.8664 23.3411 12.6285 23.5983C12.3907 23.8555 12.0681 24 11.7317 24ZM1.26862 0.685714C1.10044 0.685714 0.939147 0.757959 0.820225 0.886555C0.701303 1.01515 0.634493 1.18957 0.634493 1.37143V22.6286C0.634493 22.8104 0.701303 22.9848 0.820225 23.1134C0.939147 23.242 1.10044 23.3143 1.26862 23.3143H11.7317C11.8999 23.3143 12.0612 23.242 12.1801 23.1134C12.2991 22.9848 12.3659 22.8104 12.3659 22.6286V1.37143C12.3659 1.18957 12.2991 1.01515 12.1801 0.886555C12.0612 0.757959 11.8999 0.685714 11.7317 0.685714H1.26862Z" fill="white"/>
<path d="M12.6826 3.7696H0.317064C0.232974 3.7696 0.152327 3.73347 0.0928657 3.66918C0.0334046 3.60488 0 3.51767 0 3.42674C0 3.33581 0.0334046 3.2486 0.0928657 3.1843C0.152327 3.12 0.232974 3.08388 0.317064 3.08388H12.6826C12.7667 3.08388 12.8473 3.12 12.9068 3.1843C12.9662 3.2486 12.9996 3.33581 12.9996 3.42674C12.9996 3.51767 12.9662 3.60488 12.9068 3.66918C12.8473 3.73347 12.7667 3.7696 12.6826 3.7696Z" fill="white"/>
<path d="M12.6826 19.5441H0.317064C0.232974 19.5441 0.152327 19.508 0.0928657 19.4437C0.0334046 19.3794 0 19.2922 0 19.2012C0 19.1103 0.0334046 19.0231 0.0928657 18.9588C0.152327 18.8945 0.232974 18.8584 0.317064 18.8584H12.6826C12.7667 18.8584 12.8473 18.8945 12.9068 18.9588C12.9662 19.0231 12.9996 19.1103 12.9996 19.2012C12.9996 19.2922 12.9662 19.3794 12.9068 19.4437C12.8473 19.508 12.7667 19.5441 12.6826 19.5441Z" fill="white"/>
<path d="M6.50022 22.6944C6.26895 22.6944 6.04287 22.6202 5.85057 22.4813C5.65828 22.3423 5.5084 22.1448 5.4199 21.9138C5.33139 21.6827 5.30823 21.4285 5.35335 21.1832C5.39847 20.9379 5.50984 20.7126 5.67337 20.5358C5.83691 20.359 6.04526 20.2385 6.27209 20.1897C6.49892 20.141 6.73403 20.166 6.9477 20.2617C7.16137 20.3574 7.34399 20.5195 7.47248 20.7274C7.60097 20.9354 7.66955 21.1798 7.66955 21.4299C7.66922 21.7652 7.54591 22.0866 7.32669 22.3236C7.10747 22.5607 6.81024 22.694 6.50022 22.6944ZM6.50022 20.8515C6.39435 20.8515 6.29086 20.8855 6.20284 20.9491C6.11482 21.0127 6.04622 21.1031 6.00572 21.2089C5.96522 21.3146 5.95464 21.431 5.97532 21.5433C5.996 21.6556 6.047 21.7587 6.12188 21.8396C6.19677 21.9205 6.29216 21.9756 6.396 21.9979C6.49984 22.0202 6.60746 22.0087 6.70525 21.9648C6.80304 21.921 6.88661 21.8468 6.94538 21.7515C7.00415 21.6563 7.03549 21.5444 7.03542 21.4299C7.03525 21.2765 6.9788 21.1294 6.87846 21.021C6.77812 20.9126 6.64208 20.8516 6.50022 20.8515Z" fill="white"/>
<path d="M7.76819 2.31368H5.23168C5.14759 2.31368 5.06694 2.27755 5.00748 2.21326C4.94802 2.14896 4.91461 2.06175 4.91461 1.97082C4.91461 1.87989 4.94802 1.79268 5.00748 1.72838C5.06694 1.66408 5.14759 1.62796 5.23168 1.62796H7.76819C7.85228 1.62796 7.93293 1.66408 7.99239 1.72838C8.05185 1.79268 8.08525 1.87989 8.08525 1.97082C8.08525 2.06175 8.05185 2.14896 7.99239 2.21326C7.93293 2.27755 7.85228 2.31368 7.76819 2.31368Z" fill="white"/>
</svg>
