<svg width="24" height="24" viewBox="0 0 24 24" fill="none" xmlns="http://www.w3.org/2000/svg">
<path fill-rule="evenodd" clip-rule="evenodd" d="M5.4495 22.068L0.90777 23.2589L2.12003 18.8324L1.83471 18.3785C0.633495 16.4686 -0.000929706 14.2612 1.02259e-06 11.9946C0.00262641 5.38078 5.38583 0 12.0049 0C15.2101 0.00111089 18.2231 1.25042 20.4887 3.51785C22.7543 5.78527 24.0012 8.79906 24 12.0043C23.9974 18.6187 18.6142 24 12.0002 24H11.9954C9.84206 23.9992 7.73011 23.4209 5.88769 22.3279L5.4495 22.068ZM19.2738 15.4371C19.1836 15.2867 18.9432 15.1965 18.5824 15.0159C18.2217 14.8354 16.4481 13.9631 16.1173 13.8426C15.7867 13.7224 15.5461 13.6622 15.3057 14.0231C15.0652 14.3841 14.3739 15.1965 14.1634 15.4371C13.953 15.6777 13.7426 15.708 13.3819 15.5274C13.0212 15.3469 11.8588 14.9661 10.4809 13.7375C9.40845 12.7813 8.68445 11.6004 8.47402 11.2394C8.26359 10.8783 8.45159 10.6832 8.63218 10.5034C8.79448 10.3418 8.99296 10.0821 9.17332 9.87161C9.35367 9.6611 9.41379 9.51058 9.53405 9.27007C9.65429 9.02929 9.59418 8.81878 9.50397 8.63826C9.41379 8.45775 8.69234 6.68272 8.39173 5.96065C8.09888 5.25747 7.80149 5.35273 7.58007 5.34162C7.36989 5.33107 7.12913 5.32884 6.88867 5.32884C6.64819 5.32884 6.25734 5.4191 5.92668 5.78014C5.59603 6.14117 4.6641 7.01362 4.6641 8.78851C4.6641 10.5635 5.95673 12.2783 6.13712 12.519C6.31748 12.7597 8.68087 16.4021 12.2997 17.9641C13.1604 18.3357 13.8323 18.5576 14.3563 18.7237C15.2204 18.9983 16.0069 18.9595 16.6284 18.8666C17.3215 18.7632 18.7627 17.9943 19.0635 17.152C19.3639 16.3095 19.3639 15.5875 19.2738 15.4371Z" fill="white"/>
</svg>
